<?xml version="1.0" encoding="UTF-8"?>
<svg width="180" height="40" viewBox="0 0 180 40" fill="none" xmlns="http://www.w3.org/2000/svg">
  <path d="M20 0C8.954 0 0 8.954 0 20s8.954 20 20 20 20-8.954 20-20S31.046 0 20 0zm0 36c-8.837 0-16-7.163-16-16S11.163 4 20 4s16 7.163 16 16-7.163 16-16 16z" fill="#2563EB"/>
  <path d="M20 8c-6.627 0-12 5.373-12 12s5.373 12 12 12 12-5.373 12-12S26.627 8 20 8zm0 22c-5.514 0-10-4.486-10-10S14.486 10 20 10s10 4.486 10 10-4.486 10-10 10z" fill="#3B82F6"/>
  <path d="M20 16c-2.209 0-4 1.791-4 4s1.791 4 4 4 4-1.791 4-4-1.791-4-4-4z" fill="#60A5FA"/>
  <text x="50" y="27" font-family="Arial" font-size="24" font-weight="bold" fill="#2563EB">MindSpace</text>
</svg>
